<svg width="141" height="38" viewBox="0 0 141 38" fill="none" xmlns="http://www.w3.org/2000/svg">
<path d="M17.5312 16.6406V20.0156H5.5625V16.6406H17.5312ZM6.73438 7.25V30H2.4375V7.25H6.73438ZM20.7188 7.25V30H16.4219V7.25H20.7188ZM24.0469 21.7188V21.3906C24.0469 20.151 24.224 19.0104 24.5781 17.9688C24.9323 16.9167 25.4479 16.0052 26.125 15.2344C26.8021 14.4635 27.6302 13.8646 28.6094 13.4375C29.5885 13 30.7031 12.7812 31.9531 12.7812C33.224 12.7812 34.349 13 35.3281 13.4375C36.3177 13.8646 37.151 14.4635 37.8281 15.2344C38.5052 16.0052 39.0208 16.9167 39.375 17.9688C39.7292 19.0104 39.9062 20.151 39.9062 21.3906V21.7188C39.9062 22.9479 39.7292 24.0885 39.375 25.1406C39.0208 26.1823 38.5052 27.0938 37.8281 27.875C37.151 28.6458 36.3229 29.2448 35.3438 29.6719C34.3646 30.099 33.2448 30.3125 31.9844 30.3125C30.7344 30.3125 29.6146 30.099 28.625 29.6719C27.6354 29.2448 26.8021 28.6458 26.125 27.875C25.4479 27.0938 24.9323 26.1823 24.5781 25.1406C24.224 24.0885 24.0469 22.9479 24.0469 21.7188ZM28.1719 21.3906V21.7188C28.1719 22.4583 28.2448 23.151 28.3906 23.7969C28.5365 24.4427 28.7604 25.0104 29.0625 25.5C29.3646 25.9896 29.7552 26.375 30.2344 26.6562C30.724 26.9271 31.3073 27.0625 31.9844 27.0625C32.651 27.0625 33.224 26.9271 33.7031 26.6562C34.1823 26.375 34.5729 25.9896 34.875 25.5C35.1875 25.0104 35.4167 24.4427 35.5625 23.7969C35.7083 23.151 35.7812 22.4583 35.7812 21.7188V21.3906C35.7812 20.6615 35.7083 19.9792 35.5625 19.3438C35.4167 18.6979 35.1875 18.1302 34.875 17.6406C34.5729 17.1406 34.1771 16.75 33.6875 16.4688C33.2083 16.1771 32.6302 16.0312 31.9531 16.0312C31.2865 16.0312 30.7135 16.1771 30.2344 16.4688C29.7552 16.75 29.3646 17.1406 29.0625 17.6406C28.7604 18.1302 28.5365 18.6979 28.3906 19.3438C28.2448 19.9792 28.1719 20.6615 28.1719 21.3906ZM52.9844 7.25V30H48.7031V7.25H52.9844ZM60.0469 7.25V10.6406H41.7188V7.25H60.0469Z" fill="#FA607E"/>
<path d="M70.1094 30H65.2031L65.2344 26.625H70.1094C71.4323 26.625 72.5417 26.3333 73.4375 25.75C74.3333 25.1562 75.0104 24.3073 75.4688 23.2031C75.9271 22.0885 76.1562 20.7552 76.1562 19.2031V18.0312C76.1562 16.8333 76.026 15.776 75.7656 14.8594C75.5052 13.9427 75.1198 13.1719 74.6094 12.5469C74.1094 11.9219 73.4896 11.4479 72.75 11.125C72.0104 10.8021 71.1615 10.6406 70.2031 10.6406H65.1094V7.25H70.2031C71.724 7.25 73.1094 7.50521 74.3594 8.01562C75.6198 8.52604 76.7083 9.26042 77.625 10.2188C78.5521 11.1667 79.2604 12.3021 79.75 13.625C80.25 14.9479 80.5 16.4271 80.5 18.0625V19.2031C80.5 20.8281 80.25 22.3073 79.75 23.6406C79.2604 24.9635 78.5521 26.099 77.625 27.0469C76.7083 27.9948 75.6146 28.724 74.3438 29.2344C73.0729 29.7448 71.6615 30 70.1094 30ZM67.6094 7.25V30H63.3125V7.25H67.6094ZM99.2344 26.625V30H87.1406V26.625H99.2344ZM88.4531 7.25V30H84.1562V7.25H88.4531ZM97.6562 16.6406V19.9375H87.1406V16.6406H97.6562ZM99.1875 7.25V10.6406H87.1406V7.25H99.1875ZM114.125 24.0938C114.125 23.6562 114.057 23.2656 113.922 22.9219C113.797 22.5677 113.562 22.25 113.219 21.9688C112.885 21.6771 112.411 21.3958 111.797 21.125C111.193 20.8438 110.411 20.5521 109.453 20.25C108.391 19.9167 107.401 19.5417 106.484 19.125C105.568 18.7083 104.76 18.224 104.062 17.6719C103.375 17.1198 102.839 16.4844 102.453 15.7656C102.068 15.0365 101.875 14.1927 101.875 13.2344C101.875 12.2969 102.073 11.4427 102.469 10.6719C102.875 9.90104 103.448 9.23958 104.188 8.6875C104.927 8.125 105.797 7.69271 106.797 7.39062C107.807 7.08854 108.922 6.9375 110.141 6.9375C111.828 6.9375 113.286 7.24479 114.516 7.85938C115.755 8.47396 116.714 9.30729 117.391 10.3594C118.068 11.4115 118.406 12.5938 118.406 13.9062H114.125C114.125 13.1979 113.974 12.5729 113.672 12.0312C113.38 11.4896 112.932 11.0625 112.328 10.75C111.734 10.4375 110.984 10.2812 110.078 10.2812C109.203 10.2812 108.474 10.4115 107.891 10.6719C107.318 10.9323 106.885 11.2865 106.594 11.7344C106.312 12.1823 106.172 12.6823 106.172 13.2344C106.172 13.651 106.271 14.026 106.469 14.3594C106.667 14.6823 106.964 14.9896 107.359 15.2812C107.755 15.5625 108.245 15.8281 108.828 16.0781C109.422 16.3177 110.109 16.5573 110.891 16.7969C112.141 17.1719 113.234 17.5885 114.172 18.0469C115.12 18.5052 115.906 19.026 116.531 19.6094C117.167 20.1927 117.641 20.849 117.953 21.5781C118.276 22.3073 118.438 23.1354 118.438 24.0625C118.438 25.0417 118.245 25.9167 117.859 26.6875C117.474 27.4583 116.922 28.1146 116.203 28.6562C115.484 29.1979 114.62 29.6094 113.609 29.8906C112.609 30.1719 111.49 30.3125 110.25 30.3125C109.146 30.3125 108.052 30.1667 106.969 29.875C105.896 29.5729 104.922 29.125 104.047 28.5312C103.172 27.9271 102.474 27.1667 101.953 26.25C101.432 25.3229 101.172 24.2396 101.172 23H105.484C105.484 23.7188 105.599 24.3333 105.828 24.8438C106.068 25.3438 106.401 25.7552 106.828 26.0781C107.266 26.3906 107.776 26.6198 108.359 26.7656C108.943 26.9115 109.573 26.9844 110.25 26.9844C111.125 26.9844 111.844 26.8646 112.406 26.625C112.979 26.375 113.406 26.0312 113.688 25.5938C113.979 25.1562 114.125 24.6562 114.125 24.0938ZM126.047 7.25V30H121.75V7.25H126.047ZM139.703 7.25L130.578 18.3438L125.359 23.9219L124.594 19.75L128.219 15.0469L134.438 7.25H139.703ZM134.922 30L127.844 19.3438L130.922 16.5625L140.031 30H134.922Z" fill="#4C56C0"/>
</svg>
