<svg width="25" height="24" viewBox="0 0 25 24" fill="none" xmlns="http://www.w3.org/2000/svg">
<path d="M18.2541 14.0002C19.4961 14.0002 20.5029 15.007 20.5029 16.2491V16.8245C20.5029 17.7188 20.1833 18.5836 19.6018 19.263C18.0324 21.0965 15.6453 22.0013 12.4999 22.0013C9.35401 22.0013 6.968 21.0962 5.4017 19.2619C4.82194 18.583 4.50342 17.7195 4.50342 16.8267V16.2491C4.50342 15.007 5.51027 14.0002 6.75229 14.0002H18.2541ZM18.2541 15.5002H6.75229C6.3387 15.5002 6.00342 15.8355 6.00342 16.2491V16.8267C6.00342 17.3624 6.19453 17.8805 6.54239 18.2878C7.79569 19.7555 9.76157 20.5013 12.4999 20.5013C15.2382 20.5013 17.2058 19.7555 18.4623 18.2876C18.8112 17.8799 19.0029 17.361 19.0029 16.8245V16.2491C19.0029 15.8355 18.6676 15.5002 18.2541 15.5002ZM12.4999 2.00488C15.2613 2.00488 17.4999 4.24346 17.4999 7.00488C17.4999 9.76631 15.2613 12.0049 12.4999 12.0049C9.73845 12.0049 7.49988 9.76631 7.49988 7.00488C7.49988 4.24346 9.73845 2.00488 12.4999 2.00488ZM12.4999 3.50488C10.5669 3.50488 8.99988 5.07189 8.99988 7.00488C8.99988 8.93788 10.5669 10.5049 12.4999 10.5049C14.4329 10.5049 15.9999 8.93788 15.9999 7.00488C15.9999 5.07189 14.4329 3.50488 12.4999 3.50488Z" fill="white"/>
</svg>
